<?xml version="1.0" standalone="no"?>
<!DOCTYPE svg PUBLIC "-//W3C//DTD SVG 20010904//EN"
 "http://www.w3.org/TR/2001/REC-SVG-20010904/DTD/svg10.dtd">
<svg version="1.0" xmlns="http://www.w3.org/2000/svg"
 width="720.000000pt" height="720.000000pt" viewBox="0 0 720.000000 720.000000"
 preserveAspectRatio="xMidYMid meet">
<metadata>
Created by potrace 1.14, written by Peter Selinger 2001-2017
</metadata>
<g transform="translate(0.000000,720.000000) scale(0.100000,-0.100000)"
fill="#000000" stroke="none">
<path d="M4782 5719 c-105 -18 -234 -106 -304 -208 -18 -25 -44 -75 -59 -111
l-26 -65 -91 -6 c-82 -5 -101 -10 -179 -49 -126 -62 -195 -135 -268 -282 -30
-62 -55 -119 -55 -128 0 -14 116 -76 788 -423 107 -55 197 -96 201 -91 19 22
81 195 92 258 35 206 -32 419 -177 565 l-74 73 21 47 c42 96 121 151 216 151
101 -1 178 -53 225 -155 l23 -50 3 -859 c1 -473 -1 -863 -5 -867 -5 -5 -753
-9 -1663 -11 -910 -1 -1688 -4 -1728 -6 l-73 -4 3 -131 3 -132 91 -3 91 -3 7
-77 c26 -306 116 -591 248 -785 88 -129 235 -260 366 -326 34 -17 62 -33 62
-36 0 -2 -52 -90 -116 -195 -64 -105 -113 -195 -108 -199 29 -26 187 -141 193
-141 4 0 67 99 141 220 74 122 139 225 145 229 5 5 50 3 100 -5 126 -19 1318
-19 1450 0 50 8 95 10 100 5 6 -4 71 -107 145 -229 74 -121 137 -220 141 -220
6 0 164 115 193 141 5 4 -44 94 -108 199 -64 105 -116 193 -116 195 0 2 34 22
76 44 218 118 372 300 487 576 50 121 97 336 113 522 l7 82 91 3 91 3 0 135 0
135 -92 3 -93 3 0 884 0 884 -25 79 c-58 184 -204 325 -373 361 -60 13 -104
13 -180 0z"/>
</g>
</svg>
